<svg xmlns="http://www.w3.org/2000/svg" viewBox="0 0 512 512" role="img" aria-label="NeutralContainer">
  <defs>
    <style>
      .stroke { fill: none; stroke: #3a7f8f; stroke-width: 36; stroke-linecap: round; stroke-linejoin: round; }
      .wave { fill: none; stroke: #3a7f8f; stroke-width: 18; stroke-linecap: round; opacity: 0.7; }
    </style>
  </defs>
  <rect x="64" y="64" width="384" height="384" rx="100" fill="#e4f0f2" opacity="0.75"/>
  <path class="stroke" d="
    M 164 64
    H 200.0
    M 312.0 64
    H 348
    A 100 100 0 0 1 448 164
    V 348
    A 100 100 0 0 1 348 448
    H 164
    A 100 100 0 0 1 64 348
    V 164
    A 100 100 0 0 1 164 64
  "/>
  <path class="wave" d="M160 286 C206 258 250 314 296 286 C342 258 386 314 432 286"/>
  <path class="wave" d="M160 338 C206 310 250 366 296 338 C342 310 386 366 432 338"/>
  <circle cx="256" cy="236" r="24" fill="#2f6b7a"/>
  <circle cx="246" cy="226" r="7" fill="#ffffff" opacity="0.55"/>
</svg>